<svg xmlns="http://www.w3.org/2000/svg" xmlns:xlink="http://www.w3.org/1999/xlink" width="383" zoomAndPan="magnify" viewBox="0 0 287.25 89.999999" height="120" preserveAspectRatio="xMidYMid meet" version="1.0"><defs><g/><clipPath id="2b91a05536"><path d="M 17 57 L 45 57 L 45 89.128906 L 17 89.128906 Z M 17 57 " clip-rule="nonzero"/></clipPath><clipPath id="c01008b83b"><path d="M 0 17.316406 L 59 17.316406 L 59 63 L 0 63 Z M 0 17.316406 " clip-rule="nonzero"/></clipPath><clipPath id="ae1fbaaf72"><path d="M 64 54 L 81.535156 54 L 81.535156 63 L 64 63 Z M 64 54 " clip-rule="nonzero"/></clipPath><clipPath id="38765c751d"><path d="M 99.902344 54.902344 L 273.496094 54.902344 L 273.496094 61.925781 L 99.902344 61.925781 Z M 99.902344 54.902344 " clip-rule="nonzero"/></clipPath><clipPath id="f053b7eaa9"><path d="M 103.414062 54.902344 L 269.960938 54.902344 C 271.898438 54.902344 273.46875 56.472656 273.46875 58.414062 C 273.46875 60.351562 271.898438 61.925781 269.960938 61.925781 L 103.414062 61.925781 C 101.476562 61.925781 99.902344 60.351562 99.902344 58.414062 C 99.902344 56.472656 101.476562 54.902344 103.414062 54.902344 Z M 103.414062 54.902344 " clip-rule="nonzero"/></clipPath><clipPath id="139c6927a7"><path d="M 74.460938 54.902344 L 248.054688 54.902344 L 248.054688 61.925781 L 74.460938 61.925781 Z M 74.460938 54.902344 " clip-rule="nonzero"/></clipPath><clipPath id="3d5077c52f"><path d="M 77.972656 54.902344 L 244.515625 54.902344 C 246.453125 54.902344 248.027344 56.472656 248.027344 58.414062 C 248.027344 60.351562 246.453125 61.925781 244.515625 61.925781 L 77.972656 61.925781 C 76.03125 61.925781 74.460938 60.351562 74.460938 58.414062 C 74.460938 56.472656 76.03125 54.902344 77.972656 54.902344 Z M 77.972656 54.902344 " clip-rule="nonzero"/></clipPath><clipPath id="4950eb0557"><path d="M 78.675781 5.199219 L 96.628906 5.199219 L 96.628906 23.152344 L 78.675781 23.152344 Z M 78.675781 5.199219 " clip-rule="nonzero"/></clipPath></defs><g clip-path="url(#2b91a05536)"><path fill="#51ade5" d="M 37.75 57.972656 L 37.75 75.484375 C 37.75 79.171875 34.761719 82.15625 31.078125 82.15625 C 27.390625 82.15625 24.402344 79.171875 24.402344 75.484375 L 24.402344 64.878906 L 17.285156 64.878906 L 17.285156 75.484375 C 17.285156 83.101562 23.460938 89.277344 31.078125 89.277344 C 38.695312 89.277344 44.867188 83.101562 44.867188 75.484375 L 44.867188 57.972656 L 37.75 57.972656 " fill-opacity="1" fill-rule="nonzero"/></g><path fill="#a7a5a6" d="M 44.867188 64.878906 L 44.867188 57.972656 L 37.75 57.972656 L 44.867188 57.972656 L 44.867188 64.878906 " fill-opacity="1" fill-rule="nonzero"/><path fill="#356f95" d="M 37.75 64.878906 L 44.867188 64.878906 L 44.867188 57.972656 L 37.75 57.972656 Z M 37.75 64.878906 " fill-opacity="1" fill-rule="nonzero"/><g clip-path="url(#c01008b83b)"><path fill="#ffde59" d="M 54.542969 54.925781 L 13.890625 54.925781 C 10.222656 54.925781 7.167969 52.007812 7.117188 48.339844 C 7.070312 44.613281 10.074219 41.578125 13.789062 41.578125 L 24.390625 41.578125 L 24.390625 31.113281 C 24.390625 27.429688 27.386719 24.441406 31.070312 24.441406 C 34.753906 24.441406 37.738281 27.429688 37.738281 31.113281 L 37.738281 52.011719 L 44.898438 52.011719 L 44.898438 31.113281 C 44.898438 23.496094 38.722656 17.324219 31.105469 17.324219 L 31.058594 17.324219 C 23.453125 17.324219 17.234375 23.542969 17.234375 31.148438 L 17.234375 34.417969 L 13.789062 34.417969 C 6.171875 34.417969 -0.00390625 40.632812 -0.00390625 48.25 C -0.00390625 55.867188 6.171875 62.082031 13.789062 62.082031 L 54.542969 62.082031 C 56.519531 62.082031 58.125 60.480469 58.125 58.503906 C 58.125 56.527344 56.519531 54.925781 54.542969 54.925781 " fill-opacity="1" fill-rule="nonzero"/></g><g clip-path="url(#ae1fbaaf72)"><path fill="#ffde59" d="M 64.070312 58.503906 C 64.070312 60.480469 65.671875 62.082031 67.648438 62.082031 L 78.082031 62.082031 C 80.058594 62.082031 81.664062 60.480469 81.664062 58.503906 C 81.664062 56.527344 80.058594 54.925781 78.082031 54.925781 L 67.648438 54.925781 C 65.671875 54.925781 64.070312 56.527344 64.070312 58.503906 " fill-opacity="1" fill-rule="nonzero"/></g><g clip-path="url(#38765c751d)"><g clip-path="url(#f053b7eaa9)"><path fill="#ffde59" d="M 99.902344 54.902344 L 273.46875 54.902344 L 273.46875 61.925781 L 99.902344 61.925781 Z M 99.902344 54.902344 " fill-opacity="1" fill-rule="nonzero"/></g></g><g fill="#ffde59" fill-opacity="1"><g transform="translate(62.514107, 43.443096)"><g><path d="M 2.296875 0 L 2.296875 -25.765625 L 11.328125 -25.765625 C 14.453125 -25.765625 16.820312 -25.164062 18.4375 -23.96875 C 20.0625 -22.769531 20.875 -21.015625 20.875 -18.703125 C 20.875 -17.441406 20.546875 -16.332031 19.890625 -15.375 C 19.242188 -14.414062 18.34375 -13.707031 17.1875 -13.25 C 18.507812 -12.925781 19.550781 -12.257812 20.3125 -11.25 C 21.070312 -10.25 21.453125 -9.023438 21.453125 -7.578125 C 21.453125 -5.097656 20.660156 -3.21875 19.078125 -1.9375 C 17.492188 -0.664062 15.238281 -0.0195312 12.3125 0 Z M 7.609375 -11.21875 L 7.609375 -4.265625 L 12.15625 -4.265625 C 13.40625 -4.265625 14.378906 -4.5625 15.078125 -5.15625 C 15.785156 -5.75 16.140625 -6.570312 16.140625 -7.625 C 16.140625 -9.988281 14.921875 -11.1875 12.484375 -11.21875 Z M 7.609375 -14.96875 L 11.546875 -14.96875 C 14.222656 -15.019531 15.5625 -16.085938 15.5625 -18.171875 C 15.5625 -19.347656 15.21875 -20.191406 14.53125 -20.703125 C 13.851562 -21.210938 12.785156 -21.46875 11.328125 -21.46875 L 7.609375 -21.46875 Z M 7.609375 -14.96875 "/></g></g></g><g fill="#ffde59" fill-opacity="1"><g transform="translate(85.644835, 43.443096)"><g><path d="M 1.171875 -9.75 C 1.171875 -11.65625 1.535156 -13.347656 2.265625 -14.828125 C 2.992188 -16.316406 4.046875 -17.46875 5.421875 -18.28125 C 6.796875 -19.09375 8.394531 -19.5 10.21875 -19.5 C 12.800781 -19.5 14.910156 -18.707031 16.546875 -17.125 C 18.179688 -15.550781 19.09375 -13.40625 19.28125 -10.6875 L 19.3125 -9.375 C 19.3125 -6.4375 18.488281 -4.078125 16.84375 -2.296875 C 15.207031 -0.523438 13.007812 0.359375 10.25 0.359375 C 7.488281 0.359375 5.285156 -0.523438 3.640625 -2.296875 C 1.992188 -4.066406 1.171875 -6.472656 1.171875 -9.515625 Z M 6.28125 -9.375 C 6.28125 -7.5625 6.625 -6.171875 7.3125 -5.203125 C 8 -4.242188 8.976562 -3.765625 10.25 -3.765625 C 11.488281 -3.765625 12.457031 -4.238281 13.15625 -5.1875 C 13.851562 -6.144531 14.203125 -7.664062 14.203125 -9.75 C 14.203125 -11.53125 13.851562 -12.910156 13.15625 -13.890625 C 12.457031 -14.867188 11.476562 -15.359375 10.21875 -15.359375 C 8.96875 -15.359375 8 -14.867188 7.3125 -13.890625 C 6.625 -12.921875 6.28125 -11.414062 6.28125 -9.375 Z M 6.28125 -9.375 "/></g></g></g><g fill="#ffde59" fill-opacity="1"><g transform="translate(106.138624, 43.443096)"><g><path d="M 1.171875 -9.75 C 1.171875 -11.65625 1.535156 -13.347656 2.265625 -14.828125 C 2.992188 -16.316406 4.046875 -17.46875 5.421875 -18.28125 C 6.796875 -19.09375 8.394531 -19.5 10.21875 -19.5 C 12.800781 -19.5 14.910156 -18.707031 16.546875 -17.125 C 18.179688 -15.550781 19.09375 -13.40625 19.28125 -10.6875 L 19.3125 -9.375 C 19.3125 -6.4375 18.488281 -4.078125 16.84375 -2.296875 C 15.207031 -0.523438 13.007812 0.359375 10.25 0.359375 C 7.488281 0.359375 5.285156 -0.523438 3.640625 -2.296875 C 1.992188 -4.066406 1.171875 -6.472656 1.171875 -9.515625 Z M 6.28125 -9.375 C 6.28125 -7.5625 6.625 -6.171875 7.3125 -5.203125 C 8 -4.242188 8.976562 -3.765625 10.25 -3.765625 C 11.488281 -3.765625 12.457031 -4.238281 13.15625 -5.1875 C 13.851562 -6.144531 14.203125 -7.664062 14.203125 -9.75 C 14.203125 -11.53125 13.851562 -12.910156 13.15625 -13.890625 C 12.457031 -14.867188 11.476562 -15.359375 10.21875 -15.359375 C 8.96875 -15.359375 8 -14.867188 7.3125 -13.890625 C 6.625 -12.921875 6.28125 -11.414062 6.28125 -9.375 Z M 6.28125 -9.375 "/></g></g></g><g fill="#ffde59" fill-opacity="1"><g transform="translate(126.632414, 43.443096)"><g><path d="M 8.921875 -7.6875 L 7.078125 -5.84375 L 7.078125 0 L 1.96875 0 L 1.96875 -27.1875 L 7.078125 -27.1875 L 7.078125 -12.125 L 8.078125 -13.40625 L 12.96875 -19.15625 L 19.109375 -19.15625 L 12.203125 -11.171875 L 19.71875 0 L 13.84375 0 Z M 8.921875 -7.6875 "/></g></g></g><g fill="#ffde59" fill-opacity="1"><g transform="translate(145.993559, 43.443096)"><g><path d="M 7.359375 0 L 2.234375 0 L 2.234375 -19.15625 L 7.359375 -19.15625 Z M 1.921875 -24.109375 C 1.921875 -24.878906 2.175781 -25.507812 2.6875 -26 C 3.207031 -26.5 3.910156 -26.75 4.796875 -26.75 C 5.671875 -26.75 6.367188 -26.5 6.890625 -26 C 7.410156 -25.507812 7.671875 -24.878906 7.671875 -24.109375 C 7.671875 -23.328125 7.40625 -22.6875 6.875 -22.1875 C 6.351562 -21.695312 5.660156 -21.453125 4.796875 -21.453125 C 3.929688 -21.453125 3.234375 -21.695312 2.703125 -22.1875 C 2.179688 -22.6875 1.921875 -23.328125 1.921875 -24.109375 Z M 1.921875 -24.109375 "/></g></g></g><g fill="#ffde59" fill-opacity="1"><g transform="translate(155.603341, 43.443096)"><g><path d="M 6.671875 -19.15625 L 6.828125 -16.9375 C 8.203125 -18.644531 10.039062 -19.5 12.34375 -19.5 C 14.363281 -19.5 15.867188 -18.90625 16.859375 -17.71875 C 17.859375 -16.53125 18.367188 -14.75 18.390625 -12.375 L 18.390625 0 L 13.28125 0 L 13.28125 -12.25 C 13.28125 -13.332031 13.039062 -14.117188 12.5625 -14.609375 C 12.09375 -15.097656 11.3125 -15.34375 10.21875 -15.34375 C 8.769531 -15.34375 7.6875 -14.726562 6.96875 -13.5 L 6.96875 0 L 1.859375 0 L 1.859375 -19.15625 Z M 6.671875 -19.15625 "/></g></g></g><g fill="#ffde59" fill-opacity="1"><g transform="translate(175.902457, 43.443096)"><g><path d="M 1.21875 -9.71875 C 1.21875 -12.65625 1.914062 -15.019531 3.3125 -16.8125 C 4.71875 -18.601562 6.601562 -19.5 8.96875 -19.5 C 11.070312 -19.5 12.707031 -18.78125 13.875 -17.34375 L 14.09375 -19.15625 L 18.734375 -19.15625 L 18.734375 -0.640625 C 18.734375 1.035156 18.347656 2.492188 17.578125 3.734375 C 16.816406 4.972656 15.742188 5.914062 14.359375 6.5625 C 12.984375 7.21875 11.367188 7.546875 9.515625 7.546875 C 8.117188 7.546875 6.753906 7.265625 5.421875 6.703125 C 4.085938 6.140625 3.078125 5.414062 2.390625 4.53125 L 4.65625 1.421875 C 5.925781 2.847656 7.472656 3.5625 9.296875 3.5625 C 10.648438 3.5625 11.703125 3.195312 12.453125 2.46875 C 13.210938 1.738281 13.59375 0.707031 13.59375 -0.625 L 13.59375 -1.640625 C 12.414062 -0.304688 10.863281 0.359375 8.9375 0.359375 C 6.632812 0.359375 4.769531 -0.539062 3.34375 -2.34375 C 1.925781 -4.144531 1.21875 -6.53125 1.21875 -9.5 Z M 6.34375 -9.34375 C 6.34375 -7.613281 6.6875 -6.253906 7.375 -5.265625 C 8.070312 -4.273438 9.03125 -3.78125 10.25 -3.78125 C 11.800781 -3.78125 12.914062 -4.367188 13.59375 -5.546875 L 13.59375 -13.59375 C 12.90625 -14.757812 11.800781 -15.34375 10.28125 -15.34375 C 9.050781 -15.34375 8.085938 -14.84375 7.390625 -13.84375 C 6.691406 -12.84375 6.34375 -11.34375 6.34375 -9.34375 Z M 6.34375 -9.34375 "/></g></g></g><g fill="#ffde59" fill-opacity="1"><g transform="translate(196.59092, 43.443096)"><g><path d="M 22.53125 -8.578125 C 22.332031 -5.804688 21.304688 -3.625 19.453125 -2.03125 C 17.609375 -0.4375 15.175781 0.359375 12.15625 0.359375 C 8.851562 0.359375 6.253906 -0.75 4.359375 -2.96875 C 2.460938 -5.195312 1.515625 -8.253906 1.515625 -12.140625 L 1.515625 -13.71875 C 1.515625 -16.195312 1.953125 -18.378906 2.828125 -20.265625 C 3.703125 -22.148438 4.953125 -23.597656 6.578125 -24.609375 C 8.203125 -25.617188 10.085938 -26.125 12.234375 -26.125 C 15.203125 -26.125 17.59375 -25.328125 19.40625 -23.734375 C 21.226562 -22.140625 22.28125 -19.90625 22.5625 -17.03125 L 17.25 -17.03125 C 17.125 -18.6875 16.660156 -19.890625 15.859375 -20.640625 C 15.066406 -21.390625 13.859375 -21.765625 12.234375 -21.765625 C 10.460938 -21.765625 9.132812 -21.128906 8.25 -19.859375 C 7.375 -18.597656 6.925781 -16.632812 6.90625 -13.96875 L 6.90625 -12.015625 C 6.90625 -9.234375 7.328125 -7.195312 8.171875 -5.90625 C 9.015625 -4.625 10.34375 -3.984375 12.15625 -3.984375 C 13.800781 -3.984375 15.023438 -4.359375 15.828125 -5.109375 C 16.640625 -5.859375 17.101562 -7.015625 17.21875 -8.578125 Z M 22.53125 -8.578125 "/></g></g></g><g fill="#ffde59" fill-opacity="1"><g transform="translate(220.305667, 43.443096)"><g><path d="M 13.0625 0 C 12.820312 -0.457031 12.648438 -1.03125 12.546875 -1.71875 C 11.304688 -0.332031 9.695312 0.359375 7.71875 0.359375 C 5.84375 0.359375 4.285156 -0.179688 3.046875 -1.265625 C 1.816406 -2.359375 1.203125 -3.726562 1.203125 -5.375 C 1.203125 -7.40625 1.953125 -8.960938 3.453125 -10.046875 C 4.960938 -11.140625 7.140625 -11.691406 9.984375 -11.703125 L 12.34375 -11.703125 L 12.34375 -12.796875 C 12.34375 -13.679688 12.113281 -14.390625 11.65625 -14.921875 C 11.195312 -15.453125 10.476562 -15.71875 9.5 -15.71875 C 8.644531 -15.71875 7.972656 -15.507812 7.484375 -15.09375 C 6.992188 -14.6875 6.75 -14.125 6.75 -13.40625 L 1.625 -13.40625 C 1.625 -14.507812 1.96875 -15.53125 2.65625 -16.46875 C 3.34375 -17.414062 4.3125 -18.15625 5.5625 -18.6875 C 6.8125 -19.226562 8.210938 -19.5 9.765625 -19.5 C 12.128906 -19.5 14.003906 -18.90625 15.390625 -17.71875 C 16.773438 -16.539062 17.46875 -14.875 17.46875 -12.71875 L 17.46875 -4.421875 C 17.476562 -2.609375 17.734375 -1.234375 18.234375 -0.296875 L 18.234375 0 Z M 8.828125 -3.5625 C 9.585938 -3.5625 10.285156 -3.726562 10.921875 -4.0625 C 11.554688 -4.394531 12.03125 -4.847656 12.34375 -5.421875 L 12.34375 -8.703125 L 10.421875 -8.703125 C 7.859375 -8.703125 6.5 -7.816406 6.34375 -6.046875 L 6.3125 -5.75 C 6.3125 -5.113281 6.535156 -4.585938 6.984375 -4.171875 C 7.441406 -3.765625 8.054688 -3.5625 8.828125 -3.5625 Z M 8.828125 -3.5625 "/></g></g></g><g fill="#ffde59" fill-opacity="1"><g transform="translate(239.737602, 43.443096)"><g><path d="M 12.71875 -14.359375 C 12.03125 -14.453125 11.421875 -14.5 10.890625 -14.5 C 8.953125 -14.5 7.679688 -13.84375 7.078125 -12.53125 L 7.078125 0 L 1.96875 0 L 1.96875 -19.15625 L 6.796875 -19.15625 L 6.9375 -16.875 C 7.96875 -18.625 9.390625 -19.5 11.203125 -19.5 C 11.765625 -19.5 12.296875 -19.425781 12.796875 -19.28125 Z M 12.71875 -14.359375 "/></g></g></g><g fill="#ffde59" fill-opacity="1"><g transform="translate(252.957689, 43.443096)"><g><path d="M 10.78125 0.359375 C 7.96875 0.359375 5.679688 -0.5 3.921875 -2.21875 C 2.160156 -3.945312 1.28125 -6.242188 1.28125 -9.109375 L 1.28125 -9.609375 C 1.28125 -11.535156 1.648438 -13.253906 2.390625 -14.765625 C 3.128906 -16.285156 4.179688 -17.453125 5.546875 -18.265625 C 6.910156 -19.085938 8.46875 -19.5 10.21875 -19.5 C 12.832031 -19.5 14.890625 -18.671875 16.390625 -17.015625 C 17.898438 -15.367188 18.65625 -13.03125 18.65625 -10 L 18.65625 -7.90625 L 6.453125 -7.90625 C 6.617188 -6.65625 7.117188 -5.648438 7.953125 -4.890625 C 8.785156 -4.140625 9.835938 -3.765625 11.109375 -3.765625 C 13.085938 -3.765625 14.628906 -4.476562 15.734375 -5.90625 L 18.25 -3.09375 C 17.476562 -2.007812 16.4375 -1.160156 15.125 -0.546875 C 13.820312 0.0546875 12.375 0.359375 10.78125 0.359375 Z M 10.203125 -15.359375 C 9.179688 -15.359375 8.351562 -15.015625 7.71875 -14.328125 C 7.09375 -13.648438 6.691406 -12.675781 6.515625 -11.40625 L 13.625 -11.40625 L 13.625 -11.8125 C 13.601562 -12.9375 13.296875 -13.804688 12.703125 -14.421875 C 12.117188 -15.046875 11.285156 -15.359375 10.203125 -15.359375 Z M 10.203125 -15.359375 "/></g></g></g><g fill="#51aee5" fill-opacity="1"><g transform="translate(65.053031, 80.163973)"><g><path d="M 1.421875 0 L 1.421875 -9.765625 L 2.65625 -9.765625 L 2.65625 -1.171875 L 7.390625 -1.171875 L 7.390625 0 Z M 1.421875 0 "/></g></g></g><g fill="#51aee5" fill-opacity="1"><g transform="translate(74.515934, 80.163973)"><g><path d="M 1.421875 0 L 1.421875 -9.765625 L 2.65625 -9.765625 L 2.65625 0 Z M 1.421875 0 "/></g></g></g><g fill="#51aee5" fill-opacity="1"><g transform="translate(80.224747, 80.163973)"><g><path d="M 4.125 0 L 0.234375 -9.765625 L 1.546875 -9.765625 L 3.171875 -5.65625 L 4.703125 -1.765625 L 6.21875 -5.65625 L 7.859375 -9.765625 L 9.15625 -9.765625 L 5.28125 0 Z M 4.125 0 "/></g></g></g><g fill="#51aee5" fill-opacity="1"><g transform="translate(91.250702, 80.163973)"><g><path d="M 1.421875 0 L 1.421875 -9.765625 L 2.65625 -9.765625 L 2.65625 0 Z M 1.421875 0 "/></g></g></g><g fill="#51aee5" fill-opacity="1"><g transform="translate(96.959513, 80.163973)"><g><path d="M 1.421875 0 L 1.421875 -9.765625 L 2.578125 -9.765625 L 7.984375 -2.125 L 7.984375 -9.765625 L 9.1875 -9.765625 L 9.1875 0 L 8.03125 0 L 2.640625 -7.640625 L 2.640625 0 Z M 1.421875 0 "/></g></g></g><g fill="#51aee5" fill-opacity="1"><g transform="translate(109.199614, 80.163973)"><g><path d="M 5.78125 0.1875 C 5.0625 0.1875 4.398438 0.0625 3.796875 -0.1875 C 3.191406 -0.445312 2.664062 -0.800781 2.21875 -1.25 C 1.769531 -1.695312 1.421875 -2.226562 1.171875 -2.84375 C 0.929688 -3.46875 0.8125 -4.148438 0.8125 -4.890625 C 0.8125 -5.617188 0.929688 -6.289062 1.171875 -6.90625 C 1.410156 -7.519531 1.753906 -8.050781 2.203125 -8.5 C 2.648438 -8.957031 3.171875 -9.3125 3.765625 -9.5625 C 4.367188 -9.820312 5.03125 -9.953125 5.75 -9.953125 C 6.488281 -9.953125 7.175781 -9.816406 7.8125 -9.546875 C 8.445312 -9.273438 8.992188 -8.894531 9.453125 -8.40625 C 9.910156 -7.925781 10.242188 -7.363281 10.453125 -6.71875 L 9.109375 -6.71875 C 8.804688 -7.351562 8.363281 -7.84375 7.78125 -8.1875 C 7.207031 -8.539062 6.546875 -8.71875 5.796875 -8.71875 C 5.066406 -8.71875 4.421875 -8.554688 3.859375 -8.234375 C 3.296875 -7.910156 2.851562 -7.457031 2.53125 -6.875 C 2.21875 -6.300781 2.0625 -5.640625 2.0625 -4.890625 C 2.0625 -4.128906 2.222656 -3.457031 2.546875 -2.875 C 2.867188 -2.300781 3.3125 -1.851562 3.875 -1.53125 C 4.4375 -1.207031 5.078125 -1.046875 5.796875 -1.046875 C 6.460938 -1.046875 7.050781 -1.175781 7.5625 -1.4375 C 8.070312 -1.695312 8.488281 -2.054688 8.8125 -2.515625 C 9.132812 -2.972656 9.335938 -3.507812 9.421875 -4.125 L 5.4375 -4.125 L 5.4375 -5.296875 L 10.75 -5.296875 C 10.757812 -4.234375 10.554688 -3.289062 10.140625 -2.46875 C 9.734375 -1.644531 9.15625 -0.992188 8.40625 -0.515625 C 7.65625 -0.046875 6.78125 0.1875 5.78125 0.1875 Z M 5.78125 0.1875 "/></g></g></g><g fill="#51aee5" fill-opacity="1"><g transform="translate(122.346832, 80.163973)"><g/></g></g><g fill="#51aee5" fill-opacity="1"><g transform="translate(127.441589, 80.163973)"><g><path d="M 3.4375 0 L 0.265625 -9.765625 L 1.546875 -9.765625 L 2.90625 -5.546875 L 4.046875 -1.96875 L 6.9375 -9.765625 L 8.09375 -9.765625 L 10.984375 -1.953125 L 13.5 -9.765625 L 14.78125 -9.765625 L 11.59375 0 L 10.453125 0 L 9.125 -3.5625 L 7.5 -7.90625 L 4.578125 0 Z M 3.4375 0 "/></g></g></g><g fill="#51aee5" fill-opacity="1"><g transform="translate(144.119611, 80.163973)"><g><path d="M 1.421875 0 L 1.421875 -9.765625 L 7.359375 -9.765625 L 7.359375 -8.625 L 2.65625 -8.625 L 2.65625 -5.546875 L 7 -5.546875 L 7 -4.40625 L 2.65625 -4.40625 L 2.65625 -1.140625 L 7.5 -1.140625 L 7.5 0 Z M 1.421875 0 "/></g></g></g><g fill="#51aee5" fill-opacity="1"><g transform="translate(154.16866, 80.163973)"><g><path d="M 1.421875 0 L 1.421875 -9.765625 L 2.65625 -9.765625 L 2.65625 -1.171875 L 7.390625 -1.171875 L 7.390625 0 Z M 1.421875 0 "/></g></g></g><g fill="#51aee5" fill-opacity="1"><g transform="translate(163.631567, 80.163973)"><g><path d="M 1.421875 0 L 1.421875 -9.765625 L 2.65625 -9.765625 L 2.65625 -1.171875 L 7.390625 -1.171875 L 7.390625 0 Z M 1.421875 0 "/></g></g></g><g fill="#51aee5" fill-opacity="1"><g transform="translate(173.09447, 80.163973)"><g/></g></g><g fill="#51aee5" fill-opacity="1"><g transform="translate(178.189226, 80.163973)"><g><path d="M 1.421875 0 L 1.421875 -9.765625 L 7.359375 -9.765625 L 7.359375 -8.625 L 2.65625 -8.625 L 2.65625 -5.546875 L 7 -5.546875 L 7 -4.40625 L 2.65625 -4.40625 L 2.65625 -1.140625 L 7.5 -1.140625 L 7.5 0 Z M 1.421875 0 "/></g></g></g><g fill="#51aee5" fill-opacity="1"><g transform="translate(188.238275, 80.163973)"><g><path d="M 4.125 0 L 0.234375 -9.765625 L 1.546875 -9.765625 L 3.171875 -5.65625 L 4.703125 -1.765625 L 6.21875 -5.65625 L 7.859375 -9.765625 L 9.15625 -9.765625 L 5.28125 0 Z M 4.125 0 "/></g></g></g><g fill="#51aee5" fill-opacity="1"><g transform="translate(199.264227, 80.163973)"><g><path d="M 1.421875 0 L 1.421875 -9.765625 L 7.359375 -9.765625 L 7.359375 -8.625 L 2.65625 -8.625 L 2.65625 -5.546875 L 7 -5.546875 L 7 -4.40625 L 2.65625 -4.40625 L 2.65625 -1.140625 L 7.5 -1.140625 L 7.5 0 Z M 1.421875 0 "/></g></g></g><g fill="#51aee5" fill-opacity="1"><g transform="translate(209.313275, 80.163973)"><g><path d="M 1.421875 0 L 1.421875 -9.765625 L 5.15625 -9.765625 C 5.832031 -9.765625 6.421875 -9.632812 6.921875 -9.375 C 7.421875 -9.125 7.8125 -8.765625 8.09375 -8.296875 C 8.375 -7.835938 8.515625 -7.28125 8.515625 -6.625 C 8.515625 -5.832031 8.304688 -5.175781 7.890625 -4.65625 C 7.484375 -4.144531 6.921875 -3.800781 6.203125 -3.625 L 8.671875 0 L 7.1875 0 L 4.796875 -3.5 L 2.65625 -3.5 L 2.65625 0 Z M 2.65625 -4.671875 L 5.015625 -4.671875 C 5.722656 -4.671875 6.269531 -4.835938 6.65625 -5.171875 C 7.050781 -5.515625 7.25 -6 7.25 -6.625 C 7.25 -7.25 7.050781 -7.734375 6.65625 -8.078125 C 6.269531 -8.421875 5.722656 -8.59375 5.015625 -8.59375 L 2.65625 -8.59375 Z M 2.65625 -4.671875 "/></g></g></g><g fill="#51aee5" fill-opacity="1"><g transform="translate(220.450871, 80.163973)"><g><path d="M 3.90625 0 L 3.90625 -3.515625 L 0.234375 -9.765625 L 1.65625 -9.765625 L 3.25 -7.03125 L 4.515625 -4.828125 L 7.390625 -9.765625 L 8.78125 -9.765625 L 5.109375 -3.515625 L 5.109375 0 Z M 3.90625 0 "/></g></g></g><g fill="#51aee5" fill-opacity="1"><g transform="translate(231.100014, 80.163973)"><g/></g></g><g fill="#51aee5" fill-opacity="1"><g transform="translate(236.194771, 80.163973)"><g><path d="M 1.421875 0 L 1.421875 -9.765625 L 4.796875 -9.765625 C 5.804688 -9.765625 6.679688 -9.554688 7.421875 -9.140625 C 8.171875 -8.734375 8.753906 -8.160156 9.171875 -7.421875 C 9.597656 -6.691406 9.8125 -5.847656 9.8125 -4.890625 C 9.8125 -3.929688 9.597656 -3.082031 9.171875 -2.34375 C 8.753906 -1.601562 8.171875 -1.023438 7.421875 -0.609375 C 6.679688 -0.203125 5.804688 0 4.796875 0 Z M 2.65625 -1.171875 L 4.796875 -1.171875 C 5.546875 -1.171875 6.203125 -1.328125 6.765625 -1.640625 C 7.328125 -1.953125 7.765625 -2.382812 8.078125 -2.9375 C 8.390625 -3.5 8.546875 -4.148438 8.546875 -4.890625 C 8.546875 -5.628906 8.382812 -6.273438 8.0625 -6.828125 C 7.75 -7.378906 7.304688 -7.8125 6.734375 -8.125 C 6.171875 -8.4375 5.507812 -8.59375 4.75 -8.59375 L 2.65625 -8.59375 Z M 2.65625 -1.171875 "/></g></g></g><g fill="#51aee5" fill-opacity="1"><g transform="translate(248.44882, 80.163973)"><g><path d="M 0.234375 0 L 4.25 -9.765625 L 5.40625 -9.765625 L 9.421875 0 L 8.125 0 L 7.203125 -2.21875 L 2.4375 -2.21875 L 1.546875 0 Z M 2.921875 -3.359375 L 6.734375 -3.359375 L 4.828125 -8.046875 Z M 2.921875 -3.359375 "/></g></g></g><g fill="#51aee5" fill-opacity="1"><g transform="translate(259.739938, 80.163973)"><g><path d="M 3.90625 0 L 3.90625 -3.515625 L 0.234375 -9.765625 L 1.65625 -9.765625 L 3.25 -7.03125 L 4.515625 -4.828125 L 7.390625 -9.765625 L 8.78125 -9.765625 L 5.109375 -3.515625 L 5.109375 0 Z M 3.90625 0 "/></g></g></g><g clip-path="url(#139c6927a7)"><g clip-path="url(#3d5077c52f)"><path fill="#ffde59" d="M 74.460938 54.902344 L 248.023438 54.902344 L 248.023438 61.925781 L 74.460938 61.925781 Z M 74.460938 54.902344 " fill-opacity="1" fill-rule="nonzero"/></g></g><g clip-path="url(#4950eb0557)"><path fill="#51ade5" d="M 88.359375 23.429688 L 87.222656 23.429688 C 86.84375 23.429688 86.480469 23.359375 86.132812 23.214844 C 85.78125 23.070312 85.472656 22.863281 85.207031 22.597656 C 84.941406 22.328125 84.734375 22.019531 84.589844 21.671875 C 84.445312 21.324219 84.371094 20.960938 84.371094 20.582031 L 84.371094 17.734375 L 81.523438 17.734375 C 81.144531 17.734375 80.78125 17.660156 80.433594 17.515625 C 80.085938 17.371094 79.777344 17.164062 79.507812 16.898438 C 79.242188 16.628906 79.035156 16.324219 78.890625 15.972656 C 78.746094 15.625 78.675781 15.261719 78.675781 14.882812 L 78.675781 13.746094 C 78.675781 13.367188 78.746094 13.003906 78.890625 12.65625 C 79.035156 12.304688 79.242188 12 79.507812 11.730469 C 79.777344 11.464844 80.085938 11.257812 80.433594 11.113281 C 80.78125 10.96875 81.144531 10.894531 81.523438 10.894531 L 84.371094 10.894531 L 84.371094 8.046875 C 84.371094 7.667969 84.445312 7.304688 84.589844 6.957031 C 84.734375 6.609375 84.941406 6.300781 85.207031 6.03125 C 85.472656 5.765625 85.78125 5.558594 86.132812 5.414062 C 86.480469 5.269531 86.84375 5.199219 87.222656 5.199219 L 88.359375 5.199219 C 88.871094 5.199219 89.34375 5.324219 89.785156 5.578125 C 89.914062 5.660156 89.996094 5.777344 90.03125 5.925781 C 90.070312 6.074219 90.050781 6.214844 89.972656 6.34375 C 89.894531 6.476562 89.785156 6.566406 89.636719 6.609375 C 89.492188 6.648438 89.351562 6.636719 89.214844 6.566406 C 88.949219 6.414062 88.664062 6.335938 88.359375 6.335938 L 87.222656 6.335938 C 86.996094 6.335938 86.777344 6.378906 86.566406 6.46875 C 86.355469 6.554688 86.171875 6.675781 86.011719 6.835938 C 85.851562 7 85.726562 7.183594 85.640625 7.390625 C 85.554688 7.601562 85.511719 7.820312 85.511719 8.046875 L 85.511719 11.464844 C 85.511719 11.621094 85.457031 11.757812 85.34375 11.867188 C 85.234375 11.980469 85.097656 12.035156 84.941406 12.035156 L 81.523438 12.035156 C 81.296875 12.035156 81.078125 12.078125 80.867188 12.164062 C 80.660156 12.253906 80.472656 12.375 80.3125 12.535156 C 80.152344 12.695312 80.03125 12.882812 79.945312 13.089844 C 79.855469 13.300781 79.8125 13.519531 79.8125 13.746094 L 79.8125 14.882812 C 79.8125 15.109375 79.855469 15.328125 79.945312 15.539062 C 80.03125 15.746094 80.152344 15.933594 80.3125 16.09375 C 80.472656 16.253906 80.660156 16.375 80.867188 16.464844 C 81.078125 16.550781 81.296875 16.59375 81.523438 16.59375 L 84.941406 16.59375 C 85.097656 16.59375 85.234375 16.648438 85.34375 16.761719 C 85.457031 16.871094 85.511719 17.007812 85.511719 17.164062 L 85.511719 20.582031 C 85.511719 20.808594 85.554688 21.027344 85.640625 21.238281 C 85.726562 21.445312 85.851562 21.628906 86.011719 21.789062 C 86.171875 21.953125 86.355469 22.074219 86.566406 22.160156 C 86.777344 22.25 86.996094 22.292969 87.222656 22.292969 L 88.359375 22.292969 C 88.585938 22.292969 88.804688 22.25 89.015625 22.160156 C 89.222656 22.074219 89.410156 21.953125 89.570312 21.789062 C 89.730469 21.628906 89.851562 21.445312 89.941406 21.238281 C 90.027344 21.027344 90.070312 20.808594 90.070312 20.582031 L 90.070312 17.164062 C 90.070312 17.007812 90.125 16.871094 90.238281 16.761719 C 90.347656 16.648438 90.480469 16.59375 90.640625 16.59375 L 94.058594 16.59375 C 94.285156 16.59375 94.503906 16.550781 94.710938 16.464844 C 94.921875 16.375 95.105469 16.253906 95.265625 16.09375 C 95.425781 15.933594 95.550781 15.746094 95.636719 15.539062 C 95.722656 15.328125 95.769531 15.109375 95.769531 14.882812 L 95.769531 13.746094 C 95.769531 13.4375 95.691406 13.15625 95.539062 12.890625 C 95.46875 12.753906 95.457031 12.613281 95.496094 12.46875 C 95.539062 12.320312 95.628906 12.207031 95.761719 12.132812 C 95.890625 12.054688 96.03125 12.035156 96.179688 12.074219 C 96.328125 12.109375 96.445312 12.191406 96.527344 12.320312 C 96.78125 12.761719 96.90625 13.234375 96.90625 13.746094 L 96.90625 14.882812 C 96.90625 15.261719 96.835938 15.625 96.691406 15.972656 C 96.546875 16.324219 96.339844 16.628906 96.070312 16.898438 C 95.804688 17.164062 95.496094 17.371094 95.148438 17.515625 C 94.800781 17.660156 94.4375 17.734375 94.058594 17.734375 L 91.210938 17.734375 L 91.210938 20.582031 C 91.210938 20.960938 91.136719 21.324219 90.992188 21.671875 C 90.847656 22.019531 90.640625 22.328125 90.375 22.597656 C 90.105469 22.863281 89.800781 23.070312 89.449219 23.214844 C 89.101562 23.359375 88.738281 23.429688 88.359375 23.429688 Z M 88.359375 23.429688 " fill-opacity="1" fill-rule="nonzero"/></g><path fill="#51ade5" d="M 91.210938 14.3125 C 91.09375 14.3125 90.988281 14.28125 90.894531 14.21875 C 90.515625 13.96875 87.222656 11.714844 87.222656 9.757812 C 87.222656 9.28125 87.355469 8.851562 87.625 8.460938 C 87.894531 8.070312 88.25 7.792969 88.695312 7.625 C 89.136719 7.457031 89.589844 7.429688 90.050781 7.546875 C 90.507812 7.660156 90.894531 7.894531 91.210938 8.25 C 91.523438 7.894531 91.910156 7.660156 92.371094 7.546875 C 92.828125 7.429688 93.28125 7.457031 93.722656 7.625 C 94.167969 7.792969 94.523438 8.070312 94.792969 8.460938 C 95.0625 8.851562 95.199219 9.28125 95.199219 9.757812 C 95.199219 11.714844 91.902344 13.96875 91.527344 14.21875 C 91.429688 14.28125 91.324219 14.3125 91.210938 14.3125 Z M 89.5 8.617188 C 89.347656 8.617188 89.203125 8.644531 89.0625 8.703125 C 88.925781 8.761719 88.800781 8.84375 88.695312 8.949219 C 88.585938 9.058594 88.503906 9.179688 88.449219 9.320312 C 88.390625 9.460938 88.359375 9.605469 88.359375 9.757812 C 88.359375 10.648438 89.933594 12.136719 91.210938 13.050781 C 92.425781 12.179688 94.058594 10.691406 94.058594 9.757812 C 94.058594 9.605469 94.03125 9.460938 93.972656 9.320312 C 93.914062 9.179688 93.832031 9.058594 93.726562 8.949219 C 93.617188 8.84375 93.496094 8.761719 93.355469 8.703125 C 93.214844 8.644531 93.070312 8.617188 92.917969 8.617188 C 92.769531 8.617188 92.621094 8.644531 92.484375 8.703125 C 92.34375 8.761719 92.21875 8.84375 92.113281 8.949219 C 92.007812 9.058594 91.925781 9.179688 91.867188 9.320312 C 91.808594 9.460938 91.78125 9.605469 91.78125 9.757812 C 91.78125 9.914062 91.722656 10.046875 91.613281 10.160156 C 91.5 10.269531 91.367188 10.324219 91.210938 10.324219 C 91.050781 10.324219 90.917969 10.269531 90.808594 10.160156 C 90.695312 10.046875 90.640625 9.914062 90.640625 9.757812 C 90.640625 9.605469 90.609375 9.460938 90.554688 9.320312 C 90.496094 9.179688 90.414062 9.058594 90.304688 8.949219 C 90.199219 8.84375 90.074219 8.761719 89.9375 8.703125 C 89.796875 8.644531 89.652344 8.617188 89.5 8.617188 Z M 89.5 8.617188 " fill-opacity="1" fill-rule="nonzero"/></svg>